Simulation
nRows=27
nColumns=15
endheader
time  TH_x TH_y TH_z SC_y  SC_z  SC_x  AC_y  AC_z  AC_x  GH_y  GH_z  GH_yy  EL_x  PS_y
0.0  0.000000  0.000000  0.000000  -22.05867625654463  6.170506972356531  -8.099336436765572  56.47735625561784  8.402268667739097  9.680746943594313  -156.57125623688347  3.432461064494494  -166.2315036623573  20.233112390374824  120.000000
0.04016479400749064  0.000000  0.000000  0.000000  -22.063279950196915  6.179876704004398  -8.097657444019442  56.44104208167309  8.441465394961313  9.662874828828372  -155.42885655575847  3.297389312282809  -167.476568343127  20.14743809820108  120.000000
0.08032958801498127  0.000000  0.000000  0.000000  -22.076845960878252  6.210020284838044  -8.088082887736123  56.32317281722636  8.560011500001982  9.606191232541523  -151.1399348528485  2.899318968377372  -172.08093799224386  19.897929660330735  120.000000
0.12049438202247191  0.000000  0.000000  0.000000  -22.108032287386  6.267481119099356  -8.071906150900809  56.111996793397076  8.748990513953652  9.509004201608048  -140.4727727412941  2.2956237370312227  176.70933714581577  19.50825430482658  120.000000
0.16065917602996255  0.000000  0.000000  0.000000  -22.17198418406751  6.3533982151330575  -8.061706169236775  55.803019912762856  8.989077164729252  9.37359788870213  -114.44446639806358  1.7204921771770016  149.90581322649726  19.009063052671685  120.000000
0.20082397003745317  0.000000  0.000000  0.000000  -22.287142992108155  6.463106652115356  -8.07024967467369  55.39820364655176  9.261759627007963  9.204335891019584  -70.46650205283032  1.8284343538575254  104.92399241260124  18.429176372596782  120.000000
0.24098876404494382  0.000000  0.000000  0.000000  -22.474043077568947  6.590704839328196  -8.104753385417432  54.90780597951224  9.550392847326304  9.011102335759366  -41.63774040309911  2.906116024725196  74.87681946299553  17.795750476098593  120.000000
0.28115355805243447  0.000000  0.000000  0.000000  -22.749589862285344  6.730053934601504  -8.16211987341808  54.34866922276349  9.844407218682358  8.803402338626803  -28.95522598757176  4.507172668418609  60.783648052071456  17.133006359180623  120.000000
0.3213183520599251  0.000000  0.000000  0.000000  -23.126172817361343  6.880822639070033  -8.231058960281317  53.74360631408395  10.140568665598254  8.58686728169003  -22.67221332567209  6.399945648825041  52.92358472848746  16.461507750219056  120.000000
0.3614831460674157  0.000000  0.000000  0.000000  -23.606692714242257  7.0436345571886525  -8.296519914483673  53.113271744771446  10.441753106041533  8.367355904783183  -19.10049530144692  8.505160732199702  47.638009254630326  15.796212160574052  120.000000
0.40164794007490634  0.000000  0.000000  0.000000  -24.18844305260825  7.218628112533621  -8.340265460054585  52.47616309209886  10.751445687791351  8.14774259453616  -16.891873203435882  10.78357720015757  43.60904598881694  15.147715093357194  120.000000
0.441812734082397  0.000000  0.000000  0.000000  -24.864663717706318  7.408138941779366  -8.340574892039223  51.84973601444676  11.068910493078805  7.926422004911207  -15.475409355641043  13.207188658921842  40.29726207130528  14.524100230581977  120.000000
0.48197752808988764  0.000000  0.000000  0.000000  -25.625096717215563  7.613379630287507  -8.276118555763084  51.2477938329585  11.391134855834753  7.700631548369072  -14.573061041265227  15.75056214723255  37.45526530615712  13.930404994063531  120.000000
0.5221423220973783  0.000000  0.000000  0.000000  -26.4572405873355  7.833778445186214  -8.128457270086907  50.68269182684387  11.713729438985387  7.4684919483346475  -14.02328242217186  18.388479960263428  34.95140522082659  13.369760881057402  120.000000
0.5623071161048689  0.000000  0.000000  0.000000  -27.346147266928437  8.067722476728612  -7.881751509199849  50.166182948391  12.029787701303144  7.228796866028638  -13.717673960728403  21.09465092854146  32.70525675185951  12.843995265038128  120.000000
0.6024719101123596  0.000000  0.000000  0.000000  -28.276595811041123  8.312063028069671  -7.5241811176721045  49.70943960210248  12.330855942630404  6.980994088248829  -13.575077001839002  23.84257600204532  30.66098817456899  12.35336996031247  120.000000
0.6426367041198502  0.000000  0.000000  0.000000  -29.233990684797362  8.563402704784712  -7.052046547880361  49.32194824330109  12.610311021978395  6.727512655725408  -13.531491229915316  26.606258139969295  28.775981137493194  11.896553183844356  120.000000
0.6828014981273408  0.000000  0.000000  0.000000  -30.20566445831251  8.818613128849025  -6.46815373914028  49.010940685465926  12.863342226046626  6.47287367228137  -13.53440253878984  29.362158377731472  27.014336700953628  11.470123804366727  120.000000
0.7229662921348314  0.000000  0.000000  0.000000  -31.181252329033065  9.075585520696439  -5.77741130806078  48.78128952398154  13.085165423011214  6.2209175057328014  -13.541152304234824  32.08994160534581  25.344498221171207  11.068604807237424  120.000000
0.7631310861423221  0.000000  0.000000  0.000000  -32.152774453415645  9.333040914359902  -4.9865698427704945  48.63463396105701  13.271918191733148  5.975050523394165  -13.51845608032867  34.772688710885106  23.73881294578534  10.684762927598623  120.000000
0.8032958801498127  0.000000  0.000000  0.000000  -33.11393684084904  9.590036438825196  -4.105717939932509  48.56867920328773  13.42238884313507  5.739317205090064  -13.442853142432263  37.396415746493766  22.17446639376295  10.31048128456615  120.000000
0.8434606741573034  0.000000  0.000000  0.000000  -34.058998811918975  9.845989017908657  -3.1482990212119644  48.577200768285344  13.537999104833174  5.518377701816019  -13.300397206732834  39.949628425018865  20.6343294475741  9.938064523744258  120.000000
0.883625468164794  0.000000  0.000000  0.000000  -34.98186547301867  10.1003294232755  -2.128887350059042  48.6502765134368  13.621197615837378  5.315678302389158  -13.086804773245003  42.422973385633426  19.108428822737995  9.56179793858993  120.000000
0.9237902621722847  0.000000  0.000000  0.000000  -35.875777968690095  10.35281464584069  -1.0630935660015943  48.77486025549604  13.674612345302151  5.132995981497043  -12.806502264837667  44.808377565518704  17.594461572569433  9.179302422862367  120.000000
0.9639550561797753  0.000000  0.000000  0.000000  -36.73315039767163  10.603263835106397  0.03208143486498371  48.9354190342568  13.700646921413504  4.97068233660208  -12.470484524927466  47.09830933235391  16.09743440927395  8.792883800220155  120.000000
1.004119850187266  0.000000  0.000000  0.000000  -37.545053062697036  10.850783633885856  1.1383839730985754  49.11558358801589  13.701091661794733  4.827672122385854  -12.094997826167734  49.28472297213267  14.629363951695609  8.409438145278546  120.000000
1.0442846441947566  0.000000  0.000000  0.000000  -38.30180990914192  11.093891617114272  2.2362091163487534  49.29940821909021  13.676549573817363  4.701802956073778  -11.699551622021046  51.3579440282998  13.207947931155845  8.03917301249013  120.000000
